<mxfile host="app.diagrams.net" modified="2024-03-06T12:34:45.912Z" agent="Mozilla/5.0 (Windows NT 10.0; Win64; x64) AppleWebKit/537.36 (KHTML, like Gecko) Chrome/122.0.0.0 Safari/537.36" version="24.0.2" etag="7lCwZe01E_WtKBn-5G90" type="github">
  <diagram name="PÃ¡gina-1" id="l5T4aWV5L8dxMFkuPw3D">
    <mxGraphModel>
      <root>
        <mxCell id="0" />
        <mxCell id="1" parent="0" />
      </root>
    </mxGraphModel>
  </diagram>
</mxfile>
